<?xml version="1.0" encoding="UTF-8"?><svg id="a" xmlns="http://www.w3.org/2000/svg" viewBox="0 0 530.56 576"><defs><style>.b{fill:#98a9e9;}</style></defs><path class="b" d="M237.78,330.68C139.94,380.58,58,365.56,0,288.21l41.73-21.21-21.24-41.75c92.38-28.4,167.49,7.54,217.29,105.43Z"/><path class="b" d="M134.42,576l-7.34-46.2-46.24,7.33c1.54-96.62,58.93-156.93,167.44-174.13,17.21,108.47-22.39,181.73-113.86,213Z"/><path class="b" d="M449.66,537.09l-46.18-7.33-7.33,46.24c-91.47-31.23-131.07-104.49-113.87-213,108.45,17.16,165.89,77.47,167.38,174.09Z"/><path class="b" d="M530.56,288.23c-58.03,77.35-139.94,92.37-237.83,42.47,49.85-97.89,124.96-133.83,217.34-105.43l-21.24,41.73,41.73,21.23Z"/><path class="b" d="M378.57,156.66c-72.41,31.16-90.73,56.49-113.29,156.61-22.56-100.12-40.88-125.45-113.34-156.61C224.4,125.45,242.72,100.12,265.28,0c22.56,100.12,40.88,125.45,113.29,156.66Z"/></svg>