<?xml version="1.0" encoding="utf-8"?>
<!-- Generator: Adobe Illustrator 26.2.1, SVG Export Plug-In . SVG Version: 6.00 Build 0)  -->
<svg version="1.1" id="Layer_1" xmlns="http://www.w3.org/2000/svg" xmlns:xlink="http://www.w3.org/1999/xlink" x="0px" y="0px"
	 viewBox="0 0 530.6 530.4" style="enable-background:new 0 0 530.6 530.4;" xml:space="preserve">
<style type="text/css">
	.st0{display:none;fill:#98A9E9;}
	.st1{fill:#98A9E9;}
	.st2{fill:none;stroke:#98A9E9;stroke-width:23;stroke-miterlimit:10;}
	.st3{display:none;}
	.st4{display:inline;fill:none;stroke:#98A9E9;stroke-width:21;stroke-miterlimit:10;}
</style>
<path class="st0" d="M265.3-45.6C242.7,54.5,224.4,79.8,152,111.1c72.5,31.2,90.8,56.5,113.3,156.6
	c22.6-100.1,40.9-125.4,113.3-156.6C306.2,79.8,287.8,54.5,265.3-45.6z M265.3,201.5c-13.1-57.8-23.6-72.4-65.4-90.4
	c41.8-18,52.3-32.7,65.4-90.5c13.1,57.8,23.6,72.5,65.5,90.5C288.9,129.1,278.3,143.7,265.3,201.5z"/>
<g>
	<path class="st1" d="M265.3,23c32.7,0,64.4,6.4,94.3,19c28.8,12.2,54.7,29.7,77,51.9c22.3,22.3,39.7,48.2,51.9,77
		c12.6,29.8,19,61.6,19,94.3c0,32.7-6.4,64.4-19,94.3c-12.2,28.8-29.7,54.7-51.9,77c-22.3,22.3-48.2,39.7-77,51.9
		c-29.8,12.6-61.6,19-94.3,19s-64.4-6.4-94.3-19c-28.8-12.2-54.7-29.7-77-51.9c-22.3-22.3-39.7-48.2-51.9-77
		c-12.6-29.8-19-61.6-19-94.3c0-32.7,6.4-64.4,19-94.3c12.2-28.8,29.7-54.7,51.9-77c22.3-22.3,48.2-39.7,77-51.9
		C200.9,29.4,232.6,23,265.3,23 M265.3,0C118.8,0,0.1,118.7,0.1,265.2s118.7,265.2,265.2,265.2s265.2-118.7,265.2-265.2
		S411.8,0,265.3,0L265.3,0z"/>
</g>
<g>
	<polyline class="st2" points="152,197.8 265.3,84.5 378.6,197.8 	"/>
	<line class="st2" x1="265.3" y1="92.3" x2="265.3" y2="445.9"/>
</g>
<g class="st3">
	<line class="st4" x1="0.1" y1="0" x2="530.6" y2="0"/>
	<line class="st4" x1="0.1" y1="176.8" x2="530.6" y2="176.8"/>
	<line class="st4" x1="0.1" y1="353.6" x2="530.6" y2="353.6"/>
	<line class="st4" x1="0.1" y1="530.4" x2="530.6" y2="530.4"/>
</g>
</svg>
