<?xml version="1.0" encoding="utf-8"?>
<!-- Generator: Adobe Illustrator 26.2.1, SVG Export Plug-In . SVG Version: 6.00 Build 0)  -->
<svg version="1.1" id="Layer_1" xmlns="http://www.w3.org/2000/svg" xmlns:xlink="http://www.w3.org/1999/xlink" x="0px" y="0px"
	 viewBox="0 0 530.6 576" style="enable-background:new 0 0 530.6 576;" xml:space="preserve">
<style type="text/css">
	.st0{fill:#98A9E9;}
</style>
<path class="st0" d="M20.5,225.2L41.7,267L0,288.2c58,77.4,139.9,92.4,237.8,42.5C188,232.8,112.9,196.9,20.5,225.2z M131.7,337
	c-36.3,0-68.4-14-95.9-41.7l36.2-18.5l-18.5-36.3c8.5-1.4,17.1-2.2,25.7-2.2c51.2,0,93.8,27.6,127,82
	C179.8,331.4,154.8,337,131.7,337z"/>
<path class="st0" d="M248.3,363C139.8,380.2,82.4,440.5,80.8,537.1l46.2-7.3l7.3,46.2C225.9,544.7,265.5,471.5,248.3,363z
	 M152.3,544.2l-6.4-40.2l-40.2,6.4c9.8-63,51-103.4,123.2-120.5C234.8,463.7,209.1,515.5,152.3,544.2z"/>
<path class="st0" d="M282.3,363c-17.2,108.5,22.4,181.8,113.9,213l7.3-46.2l46.2,7.3C448.2,440.5,390.7,380.2,282.3,363z M384.7,504
	l-6.4,40.2c-56.9-28.7-82.5-80.4-76.5-154.3c72.1,17.1,113.4,57.6,123.1,120.5L384.7,504z"/>
<path class="st0" d="M488.8,267l21.2-41.7c-92.4-28.4-167.5,7.5-217.3,105.4c97.9,49.9,179.8,34.9,237.8-42.5L488.8,267z M398.8,337
	c-23,0-48-5.6-74.5-16.6c33.2-54.5,75.9-82,127-82c8.6,0,17.2,0.7,25.6,2.2l-18.5,36.3l36.2,18.5C467.3,323,435,337,398.8,337
	L398.8,337z"/>
<path class="st0" d="M265.3,0c-22.6,100.1-40.9,125.4-113.3,156.7c72.5,31.2,90.8,56.5,113.3,156.6
	c22.6-100.1,40.9-125.4,113.3-156.6C306.2,125.4,287.8,100.1,265.3,0z M265.3,247.1c-13.1-57.8-23.6-72.4-65.4-90.4
	c41.8-18,52.3-32.7,65.4-90.5c13.1,57.8,23.6,72.5,65.5,90.5C288.9,174.7,278.3,189.3,265.3,247.1z"/>
</svg>
