<?xml version="1.0" encoding="UTF-8"?><svg id="a" xmlns="http://www.w3.org/2000/svg" viewBox="0 0 29.18 31.68"><defs><style>.b{fill:#f7ece1;}</style></defs><path class="b" d="M1.13,12.39l1.17,2.3-2.29,1.17c3.19,4.25,7.7,5.08,13.08,2.34-2.74-5.38-6.87-7.36-11.95-5.8Zm6.12,6.15c-1.99,0-3.76-.77-5.27-2.29l1.99-1.02-1.02-1.99c.47-.08,.94-.12,1.41-.12,2.81,0,5.16,1.52,6.98,4.51-1.46,.61-2.83,.91-4.1,.91Z"/><path class="b" d="M13.65,19.96c-5.97,.95-9.12,4.26-9.21,9.58l2.54-.4,.4,2.54c5.03-1.72,7.21-5.75,6.26-11.71Zm-5.28,9.96l-.35-2.21-2.21,.35c.54-3.46,2.8-5.68,6.77-6.63,.33,4.06-1.09,6.91-4.21,8.48Z"/><path class="b" d="M15.52,19.96c-.95,5.97,1.23,10,6.26,11.71l.4-2.54,2.54,.4c-.08-5.31-3.24-8.63-9.2-9.57Zm5.63,7.75l-.35,2.21c-3.13-1.58-4.54-4.42-4.21-8.49,3.97,.94,6.24,3.17,6.77,6.63l-2.21-.35Z"/><path class="b" d="M26.88,14.68l1.17-2.29c-5.08-1.56-9.21,.41-11.95,5.8,5.38,2.74,9.89,1.92,13.08-2.34l-2.29-1.17Zm-4.95,3.85c-1.26,0-2.64-.31-4.1-.91,1.83-3,4.17-4.51,6.98-4.51,.47,0,.94,.04,1.41,.12l-1.02,1.99,1.99,1.02c-1.51,1.52-3.28,2.29-5.28,2.29h0Z"/><path class="b" d="M14.59,0c-1.24,5.51-2.25,6.9-6.23,8.62,3.98,1.71,4.99,3.11,6.23,8.61,1.24-5.51,2.25-6.9,6.23-8.61-3.98-1.72-4.99-3.11-6.23-8.62Zm0,13.59c-.72-3.18-1.3-3.98-3.6-4.97,2.3-.99,2.88-1.8,3.6-4.97,.72,3.18,1.3,3.98,3.6,4.97-2.3,.99-2.88,1.79-3.6,4.97Z"/></svg>