<?xml version="1.0" encoding="UTF-8"?><svg id="a" xmlns="http://www.w3.org/2000/svg" viewBox="0 0 530.5 586.5"><defs><style>.b{fill:none;stroke:#0a0908;stroke-miterlimit:10;stroke-width:23px;}.c{fill:#98a9e9;}</style></defs><g><path class="c" d="M265.2,564.5c-67.77,0-131.48-26.39-179.39-74.31C37.89,442.28,11.5,378.57,11.5,310.8s26.39-131.48,74.31-179.39S197.43,57.1,265.2,57.1s131.48,26.39,179.39,74.31c47.92,47.92,74.31,111.63,74.31,179.39s-26.39,131.48-74.31,179.39c-47.92,47.92-111.63,74.31-179.39,74.31Z"/><path class="c" d="M265.2,68.6c32.71,0,64.42,6.4,94.27,19.02,28.84,12.2,54.74,29.66,76.99,51.91,22.25,22.25,39.72,48.15,51.91,76.99,12.62,29.84,19.02,61.56,19.02,94.27s-6.4,64.42-19.02,94.27c-12.2,28.84-29.66,54.74-51.91,76.99-22.25,22.25-48.15,39.72-76.99,51.91-29.84,12.62-61.56,19.02-94.27,19.02s-64.42-6.4-94.27-19.02c-28.84-12.2-54.74-29.66-76.99-51.91-22.25-22.25-39.72-48.15-51.91-76.99-12.62-29.84-19.02-61.56-19.02-94.27s6.4-64.42,19.02-94.27c12.2-28.84,29.66-54.74,51.91-76.99,22.25-22.25,48.15-39.72,76.99-51.91,29.84-12.62,61.56-19.02,94.27-19.02m0-23C118.73,45.6,0,164.33,0,310.8s118.73,265.2,265.2,265.2,265.2-118.73,265.2-265.2S411.67,45.6,265.2,45.6h0Z"/></g><g><polyline class="b" points="151.94 243.36 265.21 130.08 378.49 243.36"/><line class="b" x1="265.21" y1="137.92" x2="265.21" y2="491.52"/></g></svg>